<?xml version="1.0" standalone="no"?>
<!DOCTYPE svg PUBLIC "-//W3C//DTD SVG 20010904//EN"
 "http://www.w3.org/TR/2001/REC-SVG-20010904/DTD/svg10.dtd">
<svg version="1.0" xmlns="http://www.w3.org/2000/svg"
 width="383.000000pt" height="383.000000pt" viewBox="0 0 383.000000 383.000000"
 preserveAspectRatio="xMidYMid meet">
<metadata>
Created by potrace 1.11, written by Peter Selinger 2001-2013
</metadata>
<g transform="translate(0.000000,383.000000) scale(0.100000,-0.100000)"
fill="#000000" stroke="none">
<path d="M1692 3709 c-24 -4 -62 -10 -85 -13 -168 -21 -487 -140 -623 -232
-19 -13 -37 -24 -40 -24 -3 0 -47 -31 -97 -69 -156 -117 -291 -257 -425 -441
-28 -38 -105 -177 -139 -250 -56 -120 -102 -265 -139 -439 -27 -125 -26 -495
1 -625 104 -505 354 -888 760 -1168 213 -147 505 -260 760 -294 77 -11 391
-11 473 -1 128 15 345 72 442 114 113 50 215 103 290 151 421 270 703 687 801
1183 19 93 23 149 23 309 1 107 -3 222 -7 255 -30 224 -112 464 -227 663 -31
54 -109 173 -119 182 -3 3 -24 28 -46 55 -58 73 -191 204 -265 262 -132 103
-390 253 -433 253 -9 0 -18 4 -21 8 -14 23 -294 99 -431 118 -76 10 -404 13
-453 3z"/>
</g>
</svg>
